<?xml version="1.0" encoding="utf-8"?>
<!-- Generator: Adobe Illustrator 17.1.0, SVG Export Plug-In . SVG Version: 6.00 Build 0)  -->
<!DOCTYPE svg PUBLIC "-//W3C//DTD SVG 1.1//EN" "http://www.w3.org/Graphics/SVG/1.1/DTD/svg11.dtd">
<svg version="1.1" id="Layer_1" xmlns="http://www.w3.org/2000/svg" xmlns:xlink="http://www.w3.org/1999/xlink" x="0px" y="0px"
	 viewBox="-140.4 -138.5 312.9 263.3" enable-background="new -140.4 -138.5 312.9 263.3" xml:space="preserve">
<path id="Cloud" fill="#91B4D8" d="M120.1-55.4c0.2-2.3,0.3-4.6,0.3-7c0-40.8-33.1-73.9-73.9-73.9c-31.7,0-58.6,20-69.1,48
	c-7-7.6-16.9-12.5-28-12.5c-21,0-38.1,17-38.1,38.1c0,2.5,0.3,4.9,0.7,7.2c-28,4.6-49.5,28.8-49.5,58.1c0,32.7,26.5,59.1,59.1,59.1
	h187.7c32.7,0,59.1-26.4,59.1-59.1C168.4-26.3,147.6-50.3,120.1-55.4z"/>
<rect id="frame_27_" x="132.6" y="-238.5" fill="none" width="100" height="100"/>
<path id="mobility" fill="#444444" d="M78.9,10.9L26.5-19.4c-3.7-2.1-8.4-0.9-10.6,2.8l-52.8,91.5c-2.1,3.7-0.9,8.4,2.8,10.6
	l52.4,30.3c3.7,2.1,8.4,0.9,10.6-2.8l52.8-91.4C83.9,17.8,82.6,13,78.9,10.9z M5.1,91C3,94.6-1.7,95.8-5.3,93.7
	c-3.6-2.1-4.9-6.7-2.8-10.4c2.1-3.6,6.7-4.9,10.4-2.8C5.9,82.7,7.2,87.3,5.1,91z M30.5,89.4l-47.7-27.6L23.2-8.1l47.7,27.6
	L30.5,89.4z"/>
<rect x="-0.7" y="0.2" transform="matrix(0.8684 0.4959 -0.4959 0.8684 23.663 -7.9686)" fill="#BFBFBF" width="55.1" height="80.8"/>
</svg>
