<?xml version="1.0" encoding="utf-8"?>
<!-- Generator: Adobe Illustrator 17.1.0, SVG Export Plug-In . SVG Version: 6.00 Build 0)  -->
<!DOCTYPE svg PUBLIC "-//W3C//DTD SVG 1.1//EN" "http://www.w3.org/Graphics/SVG/1.1/DTD/svg11.dtd">
<svg version="1.1" id="Layer_1" xmlns="http://www.w3.org/2000/svg" xmlns:xlink="http://www.w3.org/1999/xlink" x="0px" y="0px"
	 viewBox="321.2 192 381.7 384" enable-background="new 321.2 192 381.7 384" xml:space="preserve">
<path fill="#FFFFFF" d="M702.8,329.9c0-8.8-3.8-16.5-9.6-21.9c6.1-5.4,9.6-13.4,9.6-21.9c0-16.5-13.4-30-30-30v-32.3
	c0-17.7-14.2-31.9-31.9-31.9l0,0h-96l0,0c-17.7,0-31.9,14.2-31.9,31.9v31.9h-8.1c-17.3,0-34.2,16.5-38.8,31.9h-1.2
	c-36.5,0-54.5,34.9-54.9,35.7L338,443.9l-16.9,58l15.4,4.2l15.7-54.9l71.8-119.4c0-0.4,14.2-27.6,40.7-27.6h127.5
	c-4.6,28.8-34.2,31.9-47.2,31.9H489c-4.6,0-8.1,3.5-8.1,8.1c0,4.6,3.5,8.1,8.1,8.1h23.4c-4.2,49.2-45.3,87.9-95.6,87.9
	c-4.6,0-8.1,3.5-8.1,8.1c0,4.6,3.5,8.1,8.1,8.1c40.7,0,76.4-21.9,96-54.5v46.5c0,17.7,14.2,31.9,31.9,31.9l0,0h10
	c-20,38-59.9,64.1-106,64.1H426l-5.4,31.9h16.1l2.7-16.1h9.2c54.9,0,102.1-33,123.6-79.9h68.4l0,0c17.7,0,31.9-14.2,31.9-31.9
	c16.5,0,30-13.4,30-30c0-8.8-3.8-16.5-9.6-21.9c6.1-5.4,9.6-13.4,9.6-21.9s-3.8-16.5-9.6-21.9C699,346.4,702.8,338.7,702.8,329.9z
	 M672.9,374c0-5.4,1.2-10,3.8-13.4c5.8,1.5,10,6.9,10,13.4c0,6.5-4.2,11.5-10,13.4C674.4,384,673.3,379.4,672.9,374z M672.9,329.9
	c0-5.4,1.2-10,3.8-13.4c5.8,1.5,10,6.9,10,13.4c0,6.5-4.2,11.5-10,13.4C674.4,339.8,673.3,335.6,672.9,329.9z M686.7,286.1
	c0,6.5-4.2,11.5-10,13.4c-2.3-3.5-3.5-7.7-3.8-13.4c0-5.4,1.2-10,3.8-13.4C682.5,274.2,686.7,279.6,686.7,286.1z M483.2,288
	c4.2-7.7,13.1-16.1,21.5-16.1h8.1V288H483.2z M593,463.9c-8.8,0-16.1-7.3-16.1-16.1c0-8.8,7.3-16.1,16.1-16.1s16.1,7.3,16.1,16.1
	C608.8,457,601.9,463.9,593,463.9z M656.8,415.9H528.9v-63.7H545c38.8,0,64.1-21.9,64.1-56.1V288h-80.3v-56.1h127.9V415.9z
	 M676.7,431.2c-2.3-3.5-3.5-7.7-3.8-13.4c0-5.4,1.2-10,3.8-13.4c5.8,1.5,10,6.9,10,13.4S682.5,429.7,676.7,431.2z"/>
</svg>
