<?xml version="1.0" encoding="utf-8"?>
<!-- Generator: Adobe Illustrator 17.1.0, SVG Export Plug-In . SVG Version: 6.00 Build 0)  -->
<!DOCTYPE svg PUBLIC "-//W3C//DTD SVG 1.1//EN" "http://www.w3.org/Graphics/SVG/1.1/DTD/svg11.dtd">
<svg version="1.1" id="Layer_1" xmlns="http://www.w3.org/2000/svg" xmlns:xlink="http://www.w3.org/1999/xlink" x="0px" y="0px"
	 viewBox="-50 -55 200 200" enable-background="new -50 -55 200 200" xml:space="preserve">
<circle fill="#FFA366" cx="50" cy="45" r="100"/>
<path fill="#FFFFFF" d="M99.7,30.9c0-2.3-1-4.3-2.5-5.7c1.6-1.4,2.5-3.5,2.5-5.7c0-4.3-3.5-7.8-7.8-7.8V3.3c0-4.6-3.7-8.3-8.3-8.3
	c0,0,0,0,0,0h-25c0,0,0,0,0,0c-4.6,0-8.3,3.7-8.3,8.3v8.3h-2.1c-4.5,0-8.9,4.3-10.1,8.3h-0.3c-9.5,0-14.2,9.1-14.3,9.3L4.7,60.6
	L0.3,75.7l4,1.1l4.1-14.3l18.7-31.1c0-0.1,3.7-7.2,10.6-7.2h33.2c-1.2,7.5-8.9,8.3-12.3,8.3H44c-1.2,0-2.1,0.9-2.1,2.1
	s0.9,2.1,2.1,2.1h6.1c-1.1,12.8-11.8,22.9-24.9,22.9c-1.2,0-2.1,0.9-2.1,2.1s0.9,2.1,2.1,2.1c10.6,0,19.9-5.7,25-14.2v12.1
	c0,4.6,3.7,8.3,8.3,8.3c0,0,0,0,0,0h2.6c-5.2,9.9-15.6,16.7-27.6,16.7h-5.9L26.2,95h4.2l0.7-4.2h2.4c14.3,0,26.6-8.6,32.2-20.8h17.8
	c0,0,0,0,0,0c4.6,0,8.3-3.7,8.3-8.3c4.3,0,7.8-3.5,7.8-7.8c0-2.3-1-4.3-2.5-5.7c1.6-1.4,2.5-3.5,2.5-5.7s-1-4.3-2.5-5.7
	C98.7,35.2,99.7,33.2,99.7,30.9z M91.9,42.4c0-1.4,0.3-2.6,1-3.5c1.5,0.4,2.6,1.8,2.6,3.5s-1.1,3-2.6,3.5C92.3,45,92,43.8,91.9,42.4
	z M91.9,30.9c0-1.4,0.3-2.6,1-3.5c1.5,0.4,2.6,1.8,2.6,3.5s-1.1,3-2.6,3.5C92.3,33.5,92,32.4,91.9,30.9z M95.5,19.5
	c0,1.7-1.1,3-2.6,3.5c-0.6-0.9-0.9-2-1-3.5c0-1.4,0.3-2.6,1-3.5C94.4,16.4,95.5,17.8,95.5,19.5z M42.5,20c1.1-2,3.4-4.2,5.6-4.2h2.1
	V20H42.5z M71.1,65.8c-2.3,0-4.2-1.9-4.2-4.2c0-2.3,1.9-4.2,4.2-4.2s4.2,1.9,4.2,4.2C75.2,64,73.4,65.8,71.1,65.8z M87.7,53.3H54.4
	V36.7h4.2c10.1,0,16.7-5.7,16.7-14.6V20H54.4V5.4h33.3V53.3z M92.9,57.3c-0.6-0.9-0.9-2-1-3.5c0-1.4,0.3-2.6,1-3.5
	c1.5,0.4,2.6,1.8,2.6,3.5S94.4,56.9,92.9,57.3z"/>
</svg>
